<svg xmlns="http://www.w3.org/2000/svg" viewBox="0 0 24 24"><linearGradient id="a" x1="0" x2="1" y1="0" y2="1"><stop offset="0%" stop-color="#ed64a6"/><stop offset="100%" stop-color="#9f7aea"/></linearGradient><path fill="url(#a)" d="M12 2a10 10 0 1 1 0 20 10 10 0 0 1 0-20m4 10.88c-.34-.53-.59-.9-1.54-.76-1.79.29-1.99.6-2.07 1.12l-.03.15-.02.17c-.1.68-.1.94.22 1.27q1.9 2 2.25 2.84c.11.28.4 1.1.2 1.92a8 8 0 0 0 3.16-2.23q.17-.56.19-1.4v-.11c0-.93 0-1.35-.66-1.72l-.64-.32c-.37-.17-.61-.28-.94-.76zm-4-9.05c-2.32 0-4.4.97-5.9 2.52q.28.18.44.53c.2.46.2.93.2 1.35 0 .33 0 .64.11.86.14.31.77.44 1.32.56l.58.13c.5.14.9.6 1.2.96.14.15.33.38.43.43.05-.03.21-.2.29-.5q.09-.34-.05-.52c-.56-.66-.52-1.93-.35-2.4.27-.73 1.12-.68 1.74-.64q.35.04.62.01c.62-.08.81-1.02.94-1.21.3-.4 1.2-1 1.75-1.38a8 8 0 0 0-3.32-.7"/></svg>
